<mxfile host="app.diagrams.net" agent="Mozilla/5.0 (Windows NT 10.0; Win64; x64) AppleWebKit/537.36 (KHTML, like Gecko) Chrome/138.0.0.0 Safari/537.36 Edg/138.0.0.0" version="28.0.5">
  <diagram name="Page-1" id="UBO-pq-hw06xT-GeJr8R">
    <mxGraphModel dx="2363" dy="1367" grid="1" gridSize="10" guides="1" tooltips="1" connect="1" arrows="1" fold="1" page="1" pageScale="1" pageWidth="1169" pageHeight="1654" math="0" shadow="0">
      <root>
        <mxCell id="0" />
        <mxCell id="1" parent="0" />
        <mxCell id="YsDEr2DyLJq_LBXa5pST-162" value="" style="rounded=1;whiteSpace=wrap;html=1;dashed=1;fillColor=none;" vertex="1" parent="1">
          <mxGeometry x="40" y="610" width="1060" height="260" as="geometry" />
        </mxCell>
        <mxCell id="YsDEr2DyLJq_LBXa5pST-163" value="" style="endArrow=classic;html=1;rounded=0;strokeWidth=2;entryX=0.999;entryY=0.468;entryDx=0;entryDy=0;entryPerimeter=0;exitX=0.5;exitY=0;exitDx=0;exitDy=0;" edge="1" parent="1" source="YsDEr2DyLJq_LBXa5pST-165" target="YsDEr2DyLJq_LBXa5pST-312">
          <mxGeometry width="50" height="50" relative="1" as="geometry">
            <mxPoint x="740" y="1180" as="sourcePoint" />
            <mxPoint x="750" y="1320" as="targetPoint" />
            <Array as="points">
              <mxPoint x="750" y="1110" />
              <mxPoint x="750" y="1080" />
            </Array>
          </mxGeometry>
        </mxCell>
        <mxCell id="YsDEr2DyLJq_LBXa5pST-164" value="" style="rounded=1;whiteSpace=wrap;html=1;dashed=1;dashPattern=1 1;fillColor=none;" vertex="1" parent="1">
          <mxGeometry x="40" y="1200" width="1060" height="210" as="geometry" />
        </mxCell>
        <mxCell id="YsDEr2DyLJq_LBXa5pST-165" value="" style="rounded=1;whiteSpace=wrap;html=1;fillColor=none;" vertex="1" parent="1">
          <mxGeometry x="670" y="1325" width="161" height="73" as="geometry" />
        </mxCell>
        <mxCell id="YsDEr2DyLJq_LBXa5pST-166" value="" style="rounded=1;whiteSpace=wrap;html=1;dashed=1;fillColor=none;" vertex="1" parent="1">
          <mxGeometry x="40" y="295" width="1060" height="250" as="geometry" />
        </mxCell>
        <mxCell id="YsDEr2DyLJq_LBXa5pST-167" value="" style="rounded=1;whiteSpace=wrap;html=1;dashed=1;fillColor=none;" vertex="1" parent="1">
          <mxGeometry x="40" y="910" width="1060" height="260" as="geometry" />
        </mxCell>
        <mxCell id="YsDEr2DyLJq_LBXa5pST-168" value="" style="rounded=0;whiteSpace=wrap;html=1;" vertex="1" parent="1">
          <mxGeometry x="830" y="460" width="120" height="40" as="geometry" />
        </mxCell>
        <mxCell id="YsDEr2DyLJq_LBXa5pST-169" value="" style="rounded=0;whiteSpace=wrap;html=1;" vertex="1" parent="1">
          <mxGeometry x="60" y="120" width="200" height="80" as="geometry" />
        </mxCell>
        <mxCell id="YsDEr2DyLJq_LBXa5pST-170" value="" style="shape=flexArrow;endArrow=classic;html=1;rounded=0;exitX=0.5;exitY=1;exitDx=0;exitDy=0;" edge="1" parent="1" source="YsDEr2DyLJq_LBXa5pST-169">
          <mxGeometry width="50" height="50" relative="1" as="geometry">
            <mxPoint x="120" y="250" as="sourcePoint" />
            <mxPoint x="160" y="320" as="targetPoint" />
          </mxGeometry>
        </mxCell>
        <mxCell id="YsDEr2DyLJq_LBXa5pST-171" value="&lt;font style=&quot;font-size: 18px;&quot;&gt;Local Database&lt;/font&gt;&lt;div&gt;&lt;font style=&quot;font-size: 18px;&quot;&gt;(Source)&lt;/font&gt;&lt;/div&gt;" style="text;html=1;align=center;verticalAlign=middle;whiteSpace=wrap;rounded=0;" vertex="1" parent="1">
          <mxGeometry x="90" y="145" width="140" height="30" as="geometry" />
        </mxCell>
        <mxCell id="YsDEr2DyLJq_LBXa5pST-172" value="" style="rounded=0;whiteSpace=wrap;html=1;" vertex="1" parent="1">
          <mxGeometry x="100" y="320" width="120" height="40" as="geometry" />
        </mxCell>
        <mxCell id="YsDEr2DyLJq_LBXa5pST-173" value="&lt;font style=&quot;font-size: 14px;&quot;&gt;Source Connector&lt;/font&gt;" style="text;html=1;align=center;verticalAlign=middle;whiteSpace=wrap;rounded=0;" vertex="1" parent="1">
          <mxGeometry x="110" y="325" width="100" height="30" as="geometry" />
        </mxCell>
        <mxCell id="YsDEr2DyLJq_LBXa5pST-174" value="" style="rounded=1;whiteSpace=wrap;html=1;" vertex="1" parent="1">
          <mxGeometry x="60" y="440" width="200" height="80" as="geometry" />
        </mxCell>
        <mxCell id="YsDEr2DyLJq_LBXa5pST-175" value="" style="ellipse;whiteSpace=wrap;html=1;" vertex="1" parent="1">
          <mxGeometry x="105" y="480" width="110" height="40" as="geometry" />
        </mxCell>
        <mxCell id="YsDEr2DyLJq_LBXa5pST-176" value="&lt;font style=&quot;font-size: 13px;&quot;&gt;Bronze Layer&lt;/font&gt;" style="text;html=1;align=center;verticalAlign=middle;whiteSpace=wrap;rounded=0;" vertex="1" parent="1">
          <mxGeometry x="130" y="485" width="60" height="30" as="geometry" />
        </mxCell>
        <mxCell id="YsDEr2DyLJq_LBXa5pST-177" value="&lt;font style=&quot;font-size: 16px;&quot;&gt;Kafka Topic&lt;/font&gt;" style="text;html=1;align=center;verticalAlign=middle;whiteSpace=wrap;rounded=0;" vertex="1" parent="1">
          <mxGeometry x="100" y="450" width="120" height="20" as="geometry" />
        </mxCell>
        <mxCell id="YsDEr2DyLJq_LBXa5pST-178" value="" style="endArrow=classic;html=1;rounded=0;entryX=0.695;entryY=1.05;entryDx=0;entryDy=0;entryPerimeter=0;exitX=0.825;exitY=-0.025;exitDx=0;exitDy=0;exitPerimeter=0;" edge="1" parent="1" source="YsDEr2DyLJq_LBXa5pST-172" target="YsDEr2DyLJq_LBXa5pST-169">
          <mxGeometry relative="1" as="geometry">
            <mxPoint x="200" y="310" as="sourcePoint" />
            <mxPoint x="620" y="400" as="targetPoint" />
          </mxGeometry>
        </mxCell>
        <mxCell id="YsDEr2DyLJq_LBXa5pST-179" value="&lt;font style=&quot;font-size: 12px;&quot;&gt;Listen&amp;nbsp;&lt;span style=&quot;background-color: light-dark(#ffffff, var(--ge-dark-color, #121212)); color: light-dark(rgb(0, 0, 0), rgb(255, 255, 255));&quot;&gt;to&lt;/span&gt;&lt;/font&gt;&lt;div&gt;&lt;span style=&quot;background-color: light-dark(#ffffff, var(--ge-dark-color, #121212)); color: light-dark(rgb(0, 0, 0), rgb(255, 255, 255));&quot;&gt;&lt;font style=&quot;font-size: 12px;&quot;&gt;Logs Offsets&lt;/font&gt;&lt;/span&gt;&lt;/div&gt;" style="edgeLabel;resizable=0;html=1;;align=center;verticalAlign=middle;" connectable="0" vertex="1" parent="YsDEr2DyLJq_LBXa5pST-178">
          <mxGeometry relative="1" as="geometry">
            <mxPoint x="3" as="offset" />
          </mxGeometry>
        </mxCell>
        <mxCell id="YsDEr2DyLJq_LBXa5pST-180" value="&lt;font style=&quot;font-size: 12px;&quot;&gt;CDC Logs&lt;/font&gt;" style="edgeLabel;resizable=0;html=1;;align=right;verticalAlign=bottom;" connectable="0" vertex="1" parent="YsDEr2DyLJq_LBXa5pST-178">
          <mxGeometry x="1" relative="1" as="geometry">
            <mxPoint x="31" as="offset" />
          </mxGeometry>
        </mxCell>
        <mxCell id="YsDEr2DyLJq_LBXa5pST-181" value="" style="shape=flexArrow;endArrow=classic;html=1;rounded=0;fillColor=default;" edge="1" parent="1">
          <mxGeometry width="50" height="50" relative="1" as="geometry">
            <mxPoint x="160" y="520" as="sourcePoint" />
            <mxPoint x="160" y="640" as="targetPoint" />
          </mxGeometry>
        </mxCell>
        <mxCell id="YsDEr2DyLJq_LBXa5pST-182" value="" style="rounded=0;whiteSpace=wrap;html=1;" vertex="1" parent="1">
          <mxGeometry x="60" y="640" width="200" height="80" as="geometry" />
        </mxCell>
        <mxCell id="YsDEr2DyLJq_LBXa5pST-183" value="&lt;font style=&quot;font-size: 16px;&quot;&gt;Delta Tables&lt;/font&gt;" style="text;html=1;align=center;verticalAlign=middle;whiteSpace=wrap;rounded=0;fontSize=17;" vertex="1" parent="1">
          <mxGeometry x="80" y="650" width="160" height="30" as="geometry" />
        </mxCell>
        <mxCell id="YsDEr2DyLJq_LBXa5pST-184" value="" style="ellipse;whiteSpace=wrap;html=1;" vertex="1" parent="1">
          <mxGeometry x="100" y="680" width="125" height="40" as="geometry" />
        </mxCell>
        <mxCell id="YsDEr2DyLJq_LBXa5pST-185" value="&lt;font style=&quot;font-size: 13px;&quot;&gt;ODS Layer&lt;/font&gt;" style="text;html=1;align=center;verticalAlign=middle;whiteSpace=wrap;rounded=0;" vertex="1" parent="1">
          <mxGeometry x="120" y="685" width="80" height="30" as="geometry" />
        </mxCell>
        <mxCell id="YsDEr2DyLJq_LBXa5pST-186" value="" style="rounded=1;whiteSpace=wrap;html=1;" vertex="1" parent="1">
          <mxGeometry x="1000" y="320" width="80" height="200" as="geometry" />
        </mxCell>
        <mxCell id="YsDEr2DyLJq_LBXa5pST-187" value="&lt;div&gt;&lt;font style=&quot;font-size: 17px;&quot;&gt;Confluent&lt;/font&gt;&lt;/div&gt;&lt;font style=&quot;font-size: 17px;&quot;&gt;Cloud&lt;/font&gt;&lt;div&gt;&lt;font style=&quot;font-size: 17px;&quot;&gt;Data&lt;/font&gt;&lt;/div&gt;&lt;div&gt;&lt;font style=&quot;font-size: 17px;&quot;&gt;Mesh&lt;/font&gt;&lt;div&gt;&lt;font style=&quot;font-size: 17px;&quot;&gt;Stage&lt;/font&gt;&lt;/div&gt;&lt;/div&gt;" style="text;html=1;align=center;verticalAlign=middle;whiteSpace=wrap;rounded=0;" vertex="1" parent="1">
          <mxGeometry x="1010" y="405" width="60" height="30" as="geometry" />
        </mxCell>
        <mxCell id="YsDEr2DyLJq_LBXa5pST-188" value="" style="rounded=1;whiteSpace=wrap;html=1;" vertex="1" parent="1">
          <mxGeometry x="1000" y="640" width="80" height="200" as="geometry" />
        </mxCell>
        <mxCell id="YsDEr2DyLJq_LBXa5pST-189" value="&lt;font style=&quot;font-size: 17px;&quot;&gt;ADLS&lt;/font&gt;&lt;div&gt;&lt;font style=&quot;font-size: 17px;&quot;&gt;Gen2&lt;/font&gt;&lt;/div&gt;&lt;div&gt;&lt;font style=&quot;font-size: 17px;&quot;&gt;Stage&lt;/font&gt;&lt;/div&gt;" style="text;html=1;align=center;verticalAlign=middle;whiteSpace=wrap;rounded=0;" vertex="1" parent="1">
          <mxGeometry x="1010" y="725" width="60" height="30" as="geometry" />
        </mxCell>
        <mxCell id="YsDEr2DyLJq_LBXa5pST-190" value="" style="shape=flexArrow;endArrow=classic;html=1;rounded=0;entryX=0.4;entryY=0;entryDx=0;entryDy=0;entryPerimeter=0;fillColor=default;" edge="1" parent="1" target="YsDEr2DyLJq_LBXa5pST-195">
          <mxGeometry width="50" height="50" relative="1" as="geometry">
            <mxPoint x="100" y="720" as="sourcePoint" />
            <mxPoint x="100" y="840" as="targetPoint" />
          </mxGeometry>
        </mxCell>
        <mxCell id="YsDEr2DyLJq_LBXa5pST-191" value="" style="endArrow=classic;html=1;rounded=0;entryX=0.695;entryY=1.05;entryDx=0;entryDy=0;entryPerimeter=0;exitX=0.69;exitY=0.025;exitDx=0;exitDy=0;exitPerimeter=0;" edge="1" parent="1" source="YsDEr2DyLJq_LBXa5pST-182">
          <mxGeometry relative="1" as="geometry">
            <mxPoint x="200" y="635" as="sourcePoint" />
            <mxPoint x="200" y="520" as="targetPoint" />
          </mxGeometry>
        </mxCell>
        <mxCell id="YsDEr2DyLJq_LBXa5pST-192" value="&lt;font style=&quot;font-size: 12px;&quot;&gt;Listen&amp;nbsp;&lt;span style=&quot;background-color: light-dark(#ffffff, var(--ge-dark-color, #121212)); color: light-dark(rgb(0, 0, 0), rgb(255, 255, 255));&quot;&gt;to&lt;/span&gt;&lt;/font&gt;&lt;div&gt;&lt;span style=&quot;background-color: light-dark(#ffffff, var(--ge-dark-color, #121212)); color: light-dark(rgb(0, 0, 0), rgb(255, 255, 255));&quot;&gt;&lt;font style=&quot;font-size: 12px;&quot;&gt;Logs Offsets&lt;/font&gt;&lt;/span&gt;&lt;/div&gt;" style="edgeLabel;resizable=0;html=1;;align=center;verticalAlign=middle;" connectable="0" vertex="1" parent="YsDEr2DyLJq_LBXa5pST-191">
          <mxGeometry relative="1" as="geometry">
            <mxPoint x="3" as="offset" />
          </mxGeometry>
        </mxCell>
        <mxCell id="YsDEr2DyLJq_LBXa5pST-193" value="&lt;font style=&quot;font-size: 12px;&quot;&gt;CDC Logs&lt;/font&gt;" style="edgeLabel;resizable=0;html=1;;align=right;verticalAlign=bottom;" connectable="0" vertex="1" parent="YsDEr2DyLJq_LBXa5pST-191">
          <mxGeometry x="1" relative="1" as="geometry">
            <mxPoint x="40" as="offset" />
          </mxGeometry>
        </mxCell>
        <mxCell id="YsDEr2DyLJq_LBXa5pST-194" value="" style="shape=flexArrow;endArrow=classic;html=1;rounded=0;entryX=0.391;entryY=-0.025;entryDx=0;entryDy=0;entryPerimeter=0;fillColor=default;" edge="1" parent="1" target="YsDEr2DyLJq_LBXa5pST-196">
          <mxGeometry width="50" height="50" relative="1" as="geometry">
            <mxPoint x="230" y="720" as="sourcePoint" />
            <mxPoint x="230" y="840" as="targetPoint" />
          </mxGeometry>
        </mxCell>
        <mxCell id="YsDEr2DyLJq_LBXa5pST-195" value="" style="rounded=0;whiteSpace=wrap;html=1;" vertex="1" parent="1">
          <mxGeometry x="60" y="940" width="100" height="60" as="geometry" />
        </mxCell>
        <mxCell id="YsDEr2DyLJq_LBXa5pST-196" value="" style="rounded=0;whiteSpace=wrap;html=1;" vertex="1" parent="1">
          <mxGeometry x="190" y="940" width="100" height="60" as="geometry" />
        </mxCell>
        <mxCell id="YsDEr2DyLJq_LBXa5pST-197" value="&lt;font style=&quot;font-size: 16px;&quot;&gt;Batch&lt;/font&gt;&lt;div&gt;&lt;font style=&quot;font-size: 16px;&quot;&gt;Initialization&lt;/font&gt;&lt;/div&gt;" style="text;html=1;align=center;verticalAlign=middle;whiteSpace=wrap;rounded=0;" vertex="1" parent="1">
          <mxGeometry x="80" y="952" width="60" height="30" as="geometry" />
        </mxCell>
        <mxCell id="YsDEr2DyLJq_LBXa5pST-198" value="&lt;span style=&quot;font-size: 16px;&quot;&gt;Stream&lt;/span&gt;&lt;div&gt;&lt;span style=&quot;font-size: 16px;&quot;&gt;Change&lt;/span&gt;&lt;/div&gt;" style="text;html=1;align=center;verticalAlign=middle;whiteSpace=wrap;rounded=0;" vertex="1" parent="1">
          <mxGeometry x="210" y="952" width="60" height="30" as="geometry" />
        </mxCell>
        <mxCell id="YsDEr2DyLJq_LBXa5pST-199" value="" style="strokeWidth=2;html=1;shape=mxgraph.flowchart.annotation_2;align=left;labelPosition=right;pointerEvents=1;rotation=-90;" vertex="1" parent="1">
          <mxGeometry x="155" y="1034" width="40" height="130" as="geometry" />
        </mxCell>
        <mxCell id="YsDEr2DyLJq_LBXa5pST-200" value="" style="endArrow=none;html=1;rounded=0;entryX=0.674;entryY=1.007;entryDx=0;entryDy=0;entryPerimeter=0;strokeWidth=2;" edge="1" parent="1">
          <mxGeometry width="50" height="50" relative="1" as="geometry">
            <mxPoint x="300" y="1149" as="sourcePoint" />
            <mxPoint x="175.00000000000006" y="1119" as="targetPoint" />
            <Array as="points">
              <mxPoint x="175" y="1149" />
            </Array>
          </mxGeometry>
        </mxCell>
        <mxCell id="YsDEr2DyLJq_LBXa5pST-201" value="" style="endArrow=classic;html=1;rounded=0;strokeWidth=2;" edge="1" parent="1">
          <mxGeometry width="50" height="50" relative="1" as="geometry">
            <mxPoint x="300" y="1060" as="sourcePoint" />
            <mxPoint x="390" y="520" as="targetPoint" />
            <Array as="points">
              <mxPoint x="300" y="800" />
              <mxPoint x="300" y="560" />
              <mxPoint x="390" y="560" />
            </Array>
          </mxGeometry>
        </mxCell>
        <mxCell id="YsDEr2DyLJq_LBXa5pST-202" value="" style="rounded=1;whiteSpace=wrap;html=1;" vertex="1" parent="1">
          <mxGeometry x="310" y="440" width="200" height="80" as="geometry" />
        </mxCell>
        <mxCell id="YsDEr2DyLJq_LBXa5pST-203" value="" style="ellipse;whiteSpace=wrap;html=1;" vertex="1" parent="1">
          <mxGeometry x="355" y="480" width="110" height="40" as="geometry" />
        </mxCell>
        <mxCell id="YsDEr2DyLJq_LBXa5pST-204" value="&lt;font style=&quot;font-size: 13px;&quot;&gt;Silver Layer&lt;/font&gt;" style="text;html=1;align=center;verticalAlign=middle;whiteSpace=wrap;rounded=0;" vertex="1" parent="1">
          <mxGeometry x="380" y="485" width="60" height="30" as="geometry" />
        </mxCell>
        <mxCell id="YsDEr2DyLJq_LBXa5pST-205" value="&lt;font style=&quot;font-size: 16px;&quot;&gt;Kafka Topic&lt;/font&gt;" style="text;html=1;align=center;verticalAlign=middle;whiteSpace=wrap;rounded=0;" vertex="1" parent="1">
          <mxGeometry x="350" y="450" width="120" height="20" as="geometry" />
        </mxCell>
        <mxCell id="YsDEr2DyLJq_LBXa5pST-206" value="" style="shape=flexArrow;endArrow=classic;html=1;rounded=0;fillColor=default;" edge="1" parent="1">
          <mxGeometry width="50" height="50" relative="1" as="geometry">
            <mxPoint x="430" y="520" as="sourcePoint" />
            <mxPoint x="430" y="640" as="targetPoint" />
          </mxGeometry>
        </mxCell>
        <mxCell id="YsDEr2DyLJq_LBXa5pST-207" value="" style="rounded=0;whiteSpace=wrap;html=1;" vertex="1" parent="1">
          <mxGeometry x="330" y="640" width="200" height="80" as="geometry" />
        </mxCell>
        <mxCell id="YsDEr2DyLJq_LBXa5pST-208" value="&lt;font style=&quot;font-size: 16px;&quot;&gt;Delta Tables&lt;/font&gt;" style="text;html=1;align=center;verticalAlign=middle;whiteSpace=wrap;rounded=0;fontSize=17;" vertex="1" parent="1">
          <mxGeometry x="350" y="650" width="160" height="30" as="geometry" />
        </mxCell>
        <mxCell id="YsDEr2DyLJq_LBXa5pST-209" value="" style="ellipse;whiteSpace=wrap;html=1;" vertex="1" parent="1">
          <mxGeometry x="370" y="680" width="125" height="40" as="geometry" />
        </mxCell>
        <mxCell id="YsDEr2DyLJq_LBXa5pST-210" value="&lt;font style=&quot;font-size: 13px;&quot;&gt;DWD Layer&lt;/font&gt;" style="text;html=1;align=center;verticalAlign=middle;whiteSpace=wrap;rounded=0;" vertex="1" parent="1">
          <mxGeometry x="390" y="685" width="80" height="30" as="geometry" />
        </mxCell>
        <mxCell id="YsDEr2DyLJq_LBXa5pST-211" value="" style="endArrow=classic;html=1;rounded=0;entryX=0.695;entryY=1.05;entryDx=0;entryDy=0;entryPerimeter=0;exitX=0.69;exitY=0.025;exitDx=0;exitDy=0;exitPerimeter=0;" edge="1" parent="1" source="YsDEr2DyLJq_LBXa5pST-207">
          <mxGeometry relative="1" as="geometry">
            <mxPoint x="470" y="635" as="sourcePoint" />
            <mxPoint x="470" y="520" as="targetPoint" />
          </mxGeometry>
        </mxCell>
        <mxCell id="YsDEr2DyLJq_LBXa5pST-212" value="&lt;font style=&quot;font-size: 12px;&quot;&gt;Listen&amp;nbsp;&lt;span style=&quot;background-color: light-dark(#ffffff, var(--ge-dark-color, #121212)); color: light-dark(rgb(0, 0, 0), rgb(255, 255, 255));&quot;&gt;to&lt;/span&gt;&lt;/font&gt;&lt;div&gt;&lt;span style=&quot;background-color: light-dark(#ffffff, var(--ge-dark-color, #121212)); color: light-dark(rgb(0, 0, 0), rgb(255, 255, 255));&quot;&gt;&lt;font style=&quot;font-size: 12px;&quot;&gt;Logs Offsets&lt;/font&gt;&lt;/span&gt;&lt;/div&gt;" style="edgeLabel;resizable=0;html=1;;align=center;verticalAlign=middle;" connectable="0" vertex="1" parent="YsDEr2DyLJq_LBXa5pST-211">
          <mxGeometry relative="1" as="geometry">
            <mxPoint x="3" as="offset" />
          </mxGeometry>
        </mxCell>
        <mxCell id="YsDEr2DyLJq_LBXa5pST-213" value="&lt;font style=&quot;font-size: 12px;&quot;&gt;CDC Logs&lt;/font&gt;" style="edgeLabel;resizable=0;html=1;;align=right;verticalAlign=bottom;" connectable="0" vertex="1" parent="YsDEr2DyLJq_LBXa5pST-211">
          <mxGeometry x="1" relative="1" as="geometry">
            <mxPoint x="31" as="offset" />
          </mxGeometry>
        </mxCell>
        <mxCell id="YsDEr2DyLJq_LBXa5pST-214" value="" style="shape=flexArrow;endArrow=classic;html=1;rounded=0;entryX=0.391;entryY=-0.025;entryDx=0;entryDy=0;entryPerimeter=0;fillColor=default;" edge="1" parent="1" target="YsDEr2DyLJq_LBXa5pST-216">
          <mxGeometry width="50" height="50" relative="1" as="geometry">
            <mxPoint x="370" y="720" as="sourcePoint" />
            <mxPoint x="370" y="840" as="targetPoint" />
          </mxGeometry>
        </mxCell>
        <mxCell id="YsDEr2DyLJq_LBXa5pST-215" value="" style="shape=flexArrow;endArrow=classic;html=1;rounded=0;entryX=0.4;entryY=0;entryDx=0;entryDy=0;entryPerimeter=0;fillColor=default;" edge="1" parent="1" target="YsDEr2DyLJq_LBXa5pST-217">
          <mxGeometry width="50" height="50" relative="1" as="geometry">
            <mxPoint x="500" y="720" as="sourcePoint" />
            <mxPoint x="500" y="840" as="targetPoint" />
          </mxGeometry>
        </mxCell>
        <mxCell id="YsDEr2DyLJq_LBXa5pST-216" value="" style="rounded=0;whiteSpace=wrap;html=1;" vertex="1" parent="1">
          <mxGeometry x="330" y="940" width="100" height="60" as="geometry" />
        </mxCell>
        <mxCell id="YsDEr2DyLJq_LBXa5pST-217" value="" style="rounded=0;whiteSpace=wrap;html=1;" vertex="1" parent="1">
          <mxGeometry x="460" y="940" width="100" height="60" as="geometry" />
        </mxCell>
        <mxCell id="YsDEr2DyLJq_LBXa5pST-218" value="&lt;font style=&quot;font-size: 16px;&quot;&gt;Batch&lt;/font&gt;&lt;div&gt;&lt;font style=&quot;font-size: 16px;&quot;&gt;Initialization&lt;/font&gt;&lt;/div&gt;" style="text;html=1;align=center;verticalAlign=middle;whiteSpace=wrap;rounded=0;" vertex="1" parent="1">
          <mxGeometry x="350" y="952" width="60" height="30" as="geometry" />
        </mxCell>
        <mxCell id="YsDEr2DyLJq_LBXa5pST-219" value="&lt;span style=&quot;font-size: 16px;&quot;&gt;Stream&lt;/span&gt;&lt;div&gt;&lt;span style=&quot;font-size: 16px;&quot;&gt;Change&lt;/span&gt;&lt;/div&gt;" style="text;html=1;align=center;verticalAlign=middle;whiteSpace=wrap;rounded=0;" vertex="1" parent="1">
          <mxGeometry x="480" y="952" width="60" height="30" as="geometry" />
        </mxCell>
        <mxCell id="YsDEr2DyLJq_LBXa5pST-220" value="" style="strokeWidth=2;html=1;shape=mxgraph.flowchart.annotation_2;align=left;labelPosition=right;pointerEvents=1;rotation=-90;" vertex="1" parent="1">
          <mxGeometry x="425" y="1034" width="40" height="130" as="geometry" />
        </mxCell>
        <mxCell id="YsDEr2DyLJq_LBXa5pST-221" value="" style="endArrow=none;html=1;rounded=0;entryX=0.674;entryY=1.007;entryDx=0;entryDy=0;entryPerimeter=0;strokeWidth=2;" edge="1" parent="1">
          <mxGeometry width="50" height="50" relative="1" as="geometry">
            <mxPoint x="570" y="1147" as="sourcePoint" />
            <mxPoint x="445" y="1117" as="targetPoint" />
            <Array as="points">
              <mxPoint x="445" y="1147" />
            </Array>
          </mxGeometry>
        </mxCell>
        <mxCell id="YsDEr2DyLJq_LBXa5pST-222" value="" style="endArrow=classic;html=1;rounded=0;strokeWidth=2;" edge="1" parent="1">
          <mxGeometry width="50" height="50" relative="1" as="geometry">
            <mxPoint x="570" y="960" as="sourcePoint" />
            <mxPoint x="660" y="520" as="targetPoint" />
            <Array as="points">
              <mxPoint x="570" y="1060" />
              <mxPoint x="570" y="960" />
              <mxPoint x="570" y="800" />
              <mxPoint x="570" y="560" />
              <mxPoint x="660" y="560" />
            </Array>
          </mxGeometry>
        </mxCell>
        <mxCell id="YsDEr2DyLJq_LBXa5pST-223" value="" style="rounded=1;whiteSpace=wrap;html=1;" vertex="1" parent="1">
          <mxGeometry x="580" y="440" width="200" height="80" as="geometry" />
        </mxCell>
        <mxCell id="YsDEr2DyLJq_LBXa5pST-224" value="" style="ellipse;whiteSpace=wrap;html=1;" vertex="1" parent="1">
          <mxGeometry x="625" y="480" width="110" height="40" as="geometry" />
        </mxCell>
        <mxCell id="YsDEr2DyLJq_LBXa5pST-225" value="&lt;font style=&quot;font-size: 13px;&quot;&gt;Golden Layer&lt;/font&gt;" style="text;html=1;align=center;verticalAlign=middle;whiteSpace=wrap;rounded=0;" vertex="1" parent="1">
          <mxGeometry x="650" y="485" width="60" height="30" as="geometry" />
        </mxCell>
        <mxCell id="YsDEr2DyLJq_LBXa5pST-226" value="&lt;font style=&quot;font-size: 16px;&quot;&gt;Kafka Topic&lt;/font&gt;" style="text;html=1;align=center;verticalAlign=middle;whiteSpace=wrap;rounded=0;" vertex="1" parent="1">
          <mxGeometry x="620" y="450" width="120" height="20" as="geometry" />
        </mxCell>
        <mxCell id="YsDEr2DyLJq_LBXa5pST-227" value="" style="shape=flexArrow;endArrow=classic;html=1;rounded=0;fillColor=default;" edge="1" parent="1">
          <mxGeometry width="50" height="50" relative="1" as="geometry">
            <mxPoint x="700" y="520" as="sourcePoint" />
            <mxPoint x="700" y="640" as="targetPoint" />
          </mxGeometry>
        </mxCell>
        <mxCell id="YsDEr2DyLJq_LBXa5pST-228" value="" style="rounded=0;whiteSpace=wrap;html=1;" vertex="1" parent="1">
          <mxGeometry x="600" y="640" width="200" height="80" as="geometry" />
        </mxCell>
        <mxCell id="YsDEr2DyLJq_LBXa5pST-229" value="&lt;font style=&quot;font-size: 16px;&quot;&gt;Delta Tables&lt;/font&gt;" style="text;html=1;align=center;verticalAlign=middle;whiteSpace=wrap;rounded=0;fontSize=17;" vertex="1" parent="1">
          <mxGeometry x="620" y="650" width="160" height="30" as="geometry" />
        </mxCell>
        <mxCell id="YsDEr2DyLJq_LBXa5pST-230" value="" style="ellipse;whiteSpace=wrap;html=1;" vertex="1" parent="1">
          <mxGeometry x="640" y="680" width="125" height="40" as="geometry" />
        </mxCell>
        <mxCell id="YsDEr2DyLJq_LBXa5pST-231" value="&lt;font style=&quot;font-size: 13px;&quot;&gt;ADS Layer&lt;/font&gt;" style="text;html=1;align=center;verticalAlign=middle;whiteSpace=wrap;rounded=0;" vertex="1" parent="1">
          <mxGeometry x="660" y="685" width="80" height="30" as="geometry" />
        </mxCell>
        <mxCell id="YsDEr2DyLJq_LBXa5pST-232" value="" style="endArrow=classic;html=1;rounded=0;entryX=0.695;entryY=1.05;entryDx=0;entryDy=0;entryPerimeter=0;exitX=0.69;exitY=0.025;exitDx=0;exitDy=0;exitPerimeter=0;" edge="1" parent="1" source="YsDEr2DyLJq_LBXa5pST-228">
          <mxGeometry relative="1" as="geometry">
            <mxPoint x="740" y="635" as="sourcePoint" />
            <mxPoint x="740" y="520" as="targetPoint" />
          </mxGeometry>
        </mxCell>
        <mxCell id="YsDEr2DyLJq_LBXa5pST-233" value="&lt;font style=&quot;font-size: 12px;&quot;&gt;Listen&amp;nbsp;&lt;span style=&quot;background-color: light-dark(#ffffff, var(--ge-dark-color, #121212)); color: light-dark(rgb(0, 0, 0), rgb(255, 255, 255));&quot;&gt;to&lt;/span&gt;&lt;/font&gt;&lt;div&gt;&lt;span style=&quot;background-color: light-dark(#ffffff, var(--ge-dark-color, #121212)); color: light-dark(rgb(0, 0, 0), rgb(255, 255, 255));&quot;&gt;&lt;font style=&quot;font-size: 12px;&quot;&gt;Logs Offsets&lt;/font&gt;&lt;/span&gt;&lt;/div&gt;" style="edgeLabel;resizable=0;html=1;;align=center;verticalAlign=middle;" connectable="0" vertex="1" parent="YsDEr2DyLJq_LBXa5pST-232">
          <mxGeometry relative="1" as="geometry">
            <mxPoint x="3" as="offset" />
          </mxGeometry>
        </mxCell>
        <mxCell id="YsDEr2DyLJq_LBXa5pST-234" value="&lt;font style=&quot;font-size: 12px;&quot;&gt;CDC Logs&lt;/font&gt;" style="edgeLabel;resizable=0;html=1;;align=right;verticalAlign=bottom;" connectable="0" vertex="1" parent="YsDEr2DyLJq_LBXa5pST-232">
          <mxGeometry x="1" relative="1" as="geometry">
            <mxPoint x="31" as="offset" />
          </mxGeometry>
        </mxCell>
        <mxCell id="YsDEr2DyLJq_LBXa5pST-235" value="" style="endArrow=classic;html=1;rounded=0;strokeWidth=2;entryX=0;entryY=0.5;entryDx=0;entryDy=0;" edge="1" parent="1" target="YsDEr2DyLJq_LBXa5pST-168">
          <mxGeometry width="50" height="50" relative="1" as="geometry">
            <mxPoint x="780" y="480" as="sourcePoint" />
            <mxPoint x="780" y="400" as="targetPoint" />
          </mxGeometry>
        </mxCell>
        <mxCell id="YsDEr2DyLJq_LBXa5pST-236" value="&lt;font style=&quot;font-size: 14px;&quot;&gt;Sink&lt;/font&gt;&lt;div&gt;&lt;font style=&quot;font-size: 14px;&quot;&gt;Connector&lt;/font&gt;&lt;/div&gt;" style="text;html=1;align=center;verticalAlign=middle;whiteSpace=wrap;rounded=0;" vertex="1" parent="1">
          <mxGeometry x="840" y="465" width="100" height="30" as="geometry" />
        </mxCell>
        <mxCell id="YsDEr2DyLJq_LBXa5pST-237" value="" style="shape=flexArrow;endArrow=classic;html=1;rounded=0;exitX=0.5;exitY=1;exitDx=0;exitDy=0;entryX=0.457;entryY=-0.033;entryDx=0;entryDy=0;entryPerimeter=0;fillColor=default;" edge="1" parent="1" source="YsDEr2DyLJq_LBXa5pST-168" target="YsDEr2DyLJq_LBXa5pST-243">
          <mxGeometry width="50" height="50" relative="1" as="geometry">
            <mxPoint x="1080" y="590" as="sourcePoint" />
            <mxPoint x="890" y="1040" as="targetPoint" />
          </mxGeometry>
        </mxCell>
        <mxCell id="YsDEr2DyLJq_LBXa5pST-238" value="" style="rounded=1;whiteSpace=wrap;html=1;" vertex="1" parent="1">
          <mxGeometry x="1000" y="940" width="80" height="200" as="geometry" />
        </mxCell>
        <mxCell id="YsDEr2DyLJq_LBXa5pST-239" value="&lt;font style=&quot;font-size: 17px;&quot;&gt;Data-&lt;/font&gt;&lt;div&gt;&lt;font style=&quot;font-size: 17px;&quot;&gt;bricks&lt;/font&gt;&lt;div&gt;&lt;font style=&quot;font-size: 17px;&quot;&gt;Stage&lt;/font&gt;&lt;/div&gt;&lt;/div&gt;" style="text;html=1;align=center;verticalAlign=middle;whiteSpace=wrap;rounded=0;" vertex="1" parent="1">
          <mxGeometry x="1010" y="1025" width="60" height="30" as="geometry" />
        </mxCell>
        <mxCell id="YsDEr2DyLJq_LBXa5pST-240" value="" style="endArrow=none;html=1;rounded=0;strokeWidth=2;" edge="1" parent="1">
          <mxGeometry width="50" height="50" relative="1" as="geometry">
            <mxPoint x="410" y="440" as="sourcePoint" />
            <mxPoint x="410" y="360" as="targetPoint" />
          </mxGeometry>
        </mxCell>
        <mxCell id="YsDEr2DyLJq_LBXa5pST-241" value="" style="endArrow=none;html=1;rounded=0;strokeWidth=2;" edge="1" parent="1">
          <mxGeometry width="50" height="50" relative="1" as="geometry">
            <mxPoint x="410" y="360" as="sourcePoint" />
            <mxPoint x="890" y="360" as="targetPoint" />
          </mxGeometry>
        </mxCell>
        <mxCell id="YsDEr2DyLJq_LBXa5pST-242" value="" style="endArrow=classic;html=1;rounded=0;entryX=0.5;entryY=0;entryDx=0;entryDy=0;strokeWidth=2;" edge="1" parent="1" target="YsDEr2DyLJq_LBXa5pST-168">
          <mxGeometry width="50" height="50" relative="1" as="geometry">
            <mxPoint x="890" y="360" as="sourcePoint" />
            <mxPoint x="940" y="320" as="targetPoint" />
          </mxGeometry>
        </mxCell>
        <mxCell id="YsDEr2DyLJq_LBXa5pST-243" value="" style="rounded=0;whiteSpace=wrap;html=1;" vertex="1" parent="1">
          <mxGeometry x="800" y="1230" width="200" height="80" as="geometry" />
        </mxCell>
        <mxCell id="YsDEr2DyLJq_LBXa5pST-244" value="&lt;font style=&quot;font-size: 18px;&quot;&gt;Sink Database&lt;/font&gt;" style="text;html=1;align=center;verticalAlign=middle;whiteSpace=wrap;rounded=0;" vertex="1" parent="1">
          <mxGeometry x="830" y="1255" width="140" height="30" as="geometry" />
        </mxCell>
        <mxCell id="YsDEr2DyLJq_LBXa5pST-245" value="" style="shape=flexArrow;endArrow=classic;html=1;rounded=0;exitX=0;exitY=0.5;exitDx=0;exitDy=0;fillColor=default;" edge="1" parent="1" source="YsDEr2DyLJq_LBXa5pST-243">
          <mxGeometry width="50" height="50" relative="1" as="geometry">
            <mxPoint x="600" y="1300" as="sourcePoint" />
            <mxPoint x="700" y="1270" as="targetPoint" />
          </mxGeometry>
        </mxCell>
        <mxCell id="YsDEr2DyLJq_LBXa5pST-246" value="" style="rounded=0;whiteSpace=wrap;html=1;fillColor=none;" vertex="1" parent="1">
          <mxGeometry x="480" y="1240" width="220" height="60" as="geometry" />
        </mxCell>
        <mxCell id="YsDEr2DyLJq_LBXa5pST-247" value="&lt;font style=&quot;font-size: 18px;&quot;&gt;API Framework&lt;/font&gt;" style="text;html=1;align=center;verticalAlign=middle;whiteSpace=wrap;rounded=0;" vertex="1" parent="1">
          <mxGeometry x="510" y="1255" width="60" height="30" as="geometry" />
        </mxCell>
        <mxCell id="YsDEr2DyLJq_LBXa5pST-248" value="" style="shape=flexArrow;endArrow=classic;html=1;rounded=0;" edge="1" parent="1">
          <mxGeometry width="50" height="50" relative="1" as="geometry">
            <mxPoint x="480" y="1270" as="sourcePoint" />
            <mxPoint x="420" y="1270" as="targetPoint" />
          </mxGeometry>
        </mxCell>
        <mxCell id="YsDEr2DyLJq_LBXa5pST-249" value="" style="rounded=0;whiteSpace=wrap;html=1;" vertex="1" parent="1">
          <mxGeometry x="260" y="1240" width="160" height="60" as="geometry" />
        </mxCell>
        <mxCell id="YsDEr2DyLJq_LBXa5pST-250" value="&lt;font style=&quot;font-size: 18px;&quot;&gt;Kong Gateway&lt;/font&gt;" style="text;html=1;align=center;verticalAlign=middle;whiteSpace=wrap;rounded=0;" vertex="1" parent="1">
          <mxGeometry x="310" y="1255" width="60" height="30" as="geometry" />
        </mxCell>
        <mxCell id="YsDEr2DyLJq_LBXa5pST-251" value="" style="endArrow=classic;html=1;rounded=0;exitX=0.5;exitY=1;exitDx=0;exitDy=0;entryX=0.5;entryY=0;entryDx=0;entryDy=0;strokeWidth=2;" edge="1" parent="1" source="YsDEr2DyLJq_LBXa5pST-172" target="YsDEr2DyLJq_LBXa5pST-174">
          <mxGeometry relative="1" as="geometry">
            <mxPoint x="220" y="390" as="sourcePoint" />
            <mxPoint x="320" y="390" as="targetPoint" />
          </mxGeometry>
        </mxCell>
        <mxCell id="YsDEr2DyLJq_LBXa5pST-252" value="&lt;font style=&quot;font-size: 12px;&quot;&gt;Arvo Serialize&lt;/font&gt;" style="edgeLabel;resizable=0;html=1;;align=center;verticalAlign=middle;" connectable="0" vertex="1" parent="YsDEr2DyLJq_LBXa5pST-251">
          <mxGeometry relative="1" as="geometry">
            <mxPoint x="3" as="offset" />
          </mxGeometry>
        </mxCell>
        <mxCell id="YsDEr2DyLJq_LBXa5pST-253" value="&lt;font style=&quot;font-size: 13px;&quot;&gt;Arvo&lt;/font&gt;&lt;div&gt;&lt;font style=&quot;font-size: 13px;&quot;&gt;Deserialize&lt;/font&gt;&lt;/div&gt;" style="text;html=1;align=center;verticalAlign=middle;whiteSpace=wrap;rounded=0;" vertex="1" parent="1">
          <mxGeometry x="90" y="570" width="60" height="30" as="geometry" />
        </mxCell>
        <mxCell id="YsDEr2DyLJq_LBXa5pST-254" value="&lt;font style=&quot;font-size: 13px;&quot;&gt;Arvo&lt;/font&gt;&lt;div&gt;&lt;font style=&quot;font-size: 13px;&quot;&gt;Deserialize&lt;/font&gt;&lt;/div&gt;" style="text;html=1;align=center;verticalAlign=middle;whiteSpace=wrap;rounded=0;" vertex="1" parent="1">
          <mxGeometry x="360" y="570" width="60" height="30" as="geometry" />
        </mxCell>
        <mxCell id="YsDEr2DyLJq_LBXa5pST-255" value="&lt;font style=&quot;font-size: 13px;&quot;&gt;Arvo&lt;/font&gt;&lt;div&gt;&lt;font style=&quot;font-size: 13px;&quot;&gt;Deserialize&lt;/font&gt;&lt;/div&gt;" style="text;html=1;align=center;verticalAlign=middle;whiteSpace=wrap;rounded=0;" vertex="1" parent="1">
          <mxGeometry x="630" y="570" width="60" height="30" as="geometry" />
        </mxCell>
        <mxCell id="YsDEr2DyLJq_LBXa5pST-256" value="&lt;font style=&quot;font-size: 13px;&quot;&gt;Arvo Serialize&lt;/font&gt;" style="text;html=1;align=center;verticalAlign=middle;whiteSpace=wrap;rounded=0;" vertex="1" parent="1">
          <mxGeometry x="220" y="1119" width="60" height="30" as="geometry" />
        </mxCell>
        <mxCell id="YsDEr2DyLJq_LBXa5pST-257" value="&lt;font style=&quot;font-size: 13px;&quot;&gt;Arvo Serialize&lt;/font&gt;" style="text;html=1;align=center;verticalAlign=middle;whiteSpace=wrap;rounded=0;" vertex="1" parent="1">
          <mxGeometry x="490" y="1117" width="60" height="30" as="geometry" />
        </mxCell>
        <mxCell id="YsDEr2DyLJq_LBXa5pST-258" value="" style="rounded=1;whiteSpace=wrap;html=1;" vertex="1" parent="1">
          <mxGeometry x="115" y="760" width="50" height="30" as="geometry" />
        </mxCell>
        <mxCell id="YsDEr2DyLJq_LBXa5pST-259" value="" style="endArrow=classic;html=1;rounded=0;entryX=0.305;entryY=0.021;entryDx=0;entryDy=0;entryPerimeter=0;" edge="1" parent="1" target="YsDEr2DyLJq_LBXa5pST-258">
          <mxGeometry width="50" height="50" relative="1" as="geometry">
            <mxPoint x="130" y="720" as="sourcePoint" />
            <mxPoint x="130" y="760" as="targetPoint" />
          </mxGeometry>
        </mxCell>
        <mxCell id="YsDEr2DyLJq_LBXa5pST-260" value="" style="rounded=1;whiteSpace=wrap;html=1;" vertex="1" parent="1">
          <mxGeometry x="140" y="810" width="70" height="30" as="geometry" />
        </mxCell>
        <mxCell id="YsDEr2DyLJq_LBXa5pST-261" value="&lt;font style=&quot;font-size: 13px;&quot;&gt;Checkpoint&lt;/font&gt;" style="text;html=1;align=center;verticalAlign=middle;whiteSpace=wrap;rounded=0;" vertex="1" parent="1">
          <mxGeometry x="145" y="810" width="60" height="30" as="geometry" />
        </mxCell>
        <mxCell id="YsDEr2DyLJq_LBXa5pST-262" value="&lt;font style=&quot;font-size: 13px;&quot;&gt;Folder&lt;/font&gt;" style="text;html=1;align=center;verticalAlign=middle;whiteSpace=wrap;rounded=0;" vertex="1" parent="1">
          <mxGeometry x="115" y="765" width="50" height="20" as="geometry" />
        </mxCell>
        <mxCell id="YsDEr2DyLJq_LBXa5pST-263" value="" style="endArrow=none;html=1;rounded=0;strokeWidth=2;exitX=0;exitY=0.5;exitDx=0;exitDy=0;exitPerimeter=0;" edge="1" parent="1" source="YsDEr2DyLJq_LBXa5pST-264">
          <mxGeometry width="50" height="50" relative="1" as="geometry">
            <mxPoint x="340" y="1330" as="sourcePoint" />
            <mxPoint x="340" y="1300" as="targetPoint" />
          </mxGeometry>
        </mxCell>
        <mxCell id="YsDEr2DyLJq_LBXa5pST-264" value="" style="strokeWidth=2;html=1;shape=mxgraph.flowchart.annotation_2;align=left;labelPosition=right;pointerEvents=1;rotation=90;" vertex="1" parent="1">
          <mxGeometry x="320" y="1363" width="40" height="130" as="geometry" />
        </mxCell>
        <mxCell id="YsDEr2DyLJq_LBXa5pST-265" value="" style="endArrow=classic;html=1;rounded=0;exitX=1;exitY=1;exitDx=0;exitDy=0;exitPerimeter=0;strokeWidth=2;" edge="1" parent="1" source="YsDEr2DyLJq_LBXa5pST-264">
          <mxGeometry width="50" height="50" relative="1" as="geometry">
            <mxPoint x="270" y="1517" as="sourcePoint" />
            <mxPoint x="275" y="1477" as="targetPoint" />
          </mxGeometry>
        </mxCell>
        <mxCell id="YsDEr2DyLJq_LBXa5pST-266" value="" style="endArrow=classic;html=1;rounded=0;exitX=1;exitY=0;exitDx=0;exitDy=0;exitPerimeter=0;strokeWidth=2;" edge="1" parent="1" source="YsDEr2DyLJq_LBXa5pST-264">
          <mxGeometry width="50" height="50" relative="1" as="geometry">
            <mxPoint x="420" y="1477" as="sourcePoint" />
            <mxPoint x="405" y="1477" as="targetPoint" />
          </mxGeometry>
        </mxCell>
        <mxCell id="YsDEr2DyLJq_LBXa5pST-267" value="" style="shape=cylinder3;whiteSpace=wrap;html=1;boundedLbl=1;backgroundOutline=1;size=15;" vertex="1" parent="1">
          <mxGeometry x="240" y="1478" width="70" height="80" as="geometry" />
        </mxCell>
        <mxCell id="YsDEr2DyLJq_LBXa5pST-268" value="" style="ellipse;shape=cloud;whiteSpace=wrap;html=1;" vertex="1" parent="1">
          <mxGeometry x="335" y="1468" width="135" height="80" as="geometry" />
        </mxCell>
        <mxCell id="YsDEr2DyLJq_LBXa5pST-269" value="&lt;font style=&quot;font-size: 17px;&quot;&gt;Storage&lt;/font&gt;" style="text;html=1;align=center;verticalAlign=middle;whiteSpace=wrap;rounded=0;" vertex="1" parent="1">
          <mxGeometry x="245" y="1518" width="60" height="30" as="geometry" />
        </mxCell>
        <mxCell id="YsDEr2DyLJq_LBXa5pST-270" value="&lt;font style=&quot;font-size: 17px;&quot;&gt;Application&lt;/font&gt;" style="text;html=1;align=center;verticalAlign=middle;whiteSpace=wrap;rounded=0;" vertex="1" parent="1">
          <mxGeometry x="372.5" y="1493" width="60" height="30" as="geometry" />
        </mxCell>
        <mxCell id="YsDEr2DyLJq_LBXa5pST-271" value="" style="rounded=1;whiteSpace=wrap;html=1;" vertex="1" parent="1">
          <mxGeometry x="70" y="1225" width="110" height="115" as="geometry" />
        </mxCell>
        <mxCell id="YsDEr2DyLJq_LBXa5pST-272" value="&lt;font style=&quot;font-size: 18px;&quot;&gt;Data&lt;/font&gt;&lt;div&gt;&lt;font style=&quot;font-size: 18px;&quot;&gt;Service&lt;/font&gt;&lt;/div&gt;" style="text;html=1;align=center;verticalAlign=middle;whiteSpace=wrap;rounded=0;" vertex="1" parent="1">
          <mxGeometry x="95" y="1267.5" width="60" height="30" as="geometry" />
        </mxCell>
        <mxCell id="YsDEr2DyLJq_LBXa5pST-273" value="" style="endArrow=none;html=1;rounded=0;exitX=1;exitY=0;exitDx=0;exitDy=0;exitPerimeter=0;strokeWidth=2;" edge="1" parent="1">
          <mxGeometry width="50" height="50" relative="1" as="geometry">
            <mxPoint x="240" y="1079" as="sourcePoint" />
            <mxPoint x="240" y="1000" as="targetPoint" />
          </mxGeometry>
        </mxCell>
        <mxCell id="YsDEr2DyLJq_LBXa5pST-274" value="" style="endArrow=none;html=1;rounded=0;exitX=1;exitY=0;exitDx=0;exitDy=0;exitPerimeter=0;strokeWidth=2;" edge="1" parent="1">
          <mxGeometry width="50" height="50" relative="1" as="geometry">
            <mxPoint x="510" y="1079.5" as="sourcePoint" />
            <mxPoint x="510" y="1000.5" as="targetPoint" />
          </mxGeometry>
        </mxCell>
        <mxCell id="YsDEr2DyLJq_LBXa5pST-275" value="" style="endArrow=none;html=1;rounded=0;strokeWidth=2;" edge="1" parent="1">
          <mxGeometry width="50" height="50" relative="1" as="geometry">
            <mxPoint x="300" y="1150" as="sourcePoint" />
            <mxPoint x="300" y="1059.5" as="targetPoint" />
          </mxGeometry>
        </mxCell>
        <mxCell id="YsDEr2DyLJq_LBXa5pST-276" value="" style="endArrow=none;html=1;rounded=0;strokeWidth=2;" edge="1" parent="1">
          <mxGeometry width="50" height="50" relative="1" as="geometry">
            <mxPoint x="570" y="1148" as="sourcePoint" />
            <mxPoint x="570" y="1054" as="targetPoint" />
          </mxGeometry>
        </mxCell>
        <mxCell id="YsDEr2DyLJq_LBXa5pST-277" value="" style="strokeWidth=2;html=1;shape=mxgraph.flowchart.annotation_2;align=left;labelPosition=right;pointerEvents=1;rotation=-90;" vertex="1" parent="1">
          <mxGeometry x="90" y="1030" width="40" height="75" as="geometry" />
        </mxCell>
        <mxCell id="YsDEr2DyLJq_LBXa5pST-278" value="" style="endArrow=none;html=1;rounded=0;exitX=1;exitY=0;exitDx=0;exitDy=0;exitPerimeter=0;strokeWidth=2;" edge="1" parent="1" source="YsDEr2DyLJq_LBXa5pST-277">
          <mxGeometry width="50" height="50" relative="1" as="geometry">
            <mxPoint x="73" y="1079" as="sourcePoint" />
            <mxPoint x="73" y="1000" as="targetPoint" />
          </mxGeometry>
        </mxCell>
        <mxCell id="YsDEr2DyLJq_LBXa5pST-279" value="" style="endArrow=none;html=1;rounded=0;exitX=1;exitY=0;exitDx=0;exitDy=0;exitPerimeter=0;strokeWidth=2;" edge="1" parent="1">
          <mxGeometry width="50" height="50" relative="1" as="geometry">
            <mxPoint x="148" y="1049" as="sourcePoint" />
            <mxPoint x="148" y="1001" as="targetPoint" />
          </mxGeometry>
        </mxCell>
        <mxCell id="YsDEr2DyLJq_LBXa5pST-280" value="&lt;font style=&quot;font-size: 14px;&quot; face=&quot;Courier New&quot;&gt;left&lt;/font&gt;&lt;div&gt;&lt;font style=&quot;font-size: 14px;&quot; face=&quot;Courier New&quot;&gt;join&lt;/font&gt;&lt;/div&gt;" style="text;html=1;align=center;verticalAlign=middle;whiteSpace=wrap;rounded=0;fillColor=default;" vertex="1" parent="1">
          <mxGeometry x="45" y="1020" width="60" height="30" as="geometry" />
        </mxCell>
        <mxCell id="YsDEr2DyLJq_LBXa5pST-281" value="" style="strokeWidth=2;html=1;shape=mxgraph.flowchart.annotation_2;align=left;labelPosition=right;pointerEvents=1;rotation=-90;" vertex="1" parent="1">
          <mxGeometry x="220" y="1031" width="40" height="75" as="geometry" />
        </mxCell>
        <mxCell id="YsDEr2DyLJq_LBXa5pST-282" value="" style="endArrow=none;html=1;rounded=0;exitX=1;exitY=0;exitDx=0;exitDy=0;exitPerimeter=0;strokeWidth=2;" edge="1" parent="1" source="YsDEr2DyLJq_LBXa5pST-281">
          <mxGeometry width="50" height="50" relative="1" as="geometry">
            <mxPoint x="203" y="1080" as="sourcePoint" />
            <mxPoint x="203" y="1001" as="targetPoint" />
          </mxGeometry>
        </mxCell>
        <mxCell id="YsDEr2DyLJq_LBXa5pST-283" value="" style="endArrow=none;html=1;rounded=0;exitX=1;exitY=0;exitDx=0;exitDy=0;exitPerimeter=0;strokeWidth=2;" edge="1" parent="1">
          <mxGeometry width="50" height="50" relative="1" as="geometry">
            <mxPoint x="278" y="1050" as="sourcePoint" />
            <mxPoint x="278" y="1002" as="targetPoint" />
          </mxGeometry>
        </mxCell>
        <mxCell id="YsDEr2DyLJq_LBXa5pST-284" value="&lt;font style=&quot;font-size: 14px;&quot; face=&quot;Courier New&quot;&gt;left&lt;/font&gt;&lt;div&gt;&lt;font style=&quot;font-size: 14px;&quot; face=&quot;Courier New&quot;&gt;join&lt;/font&gt;&lt;/div&gt;" style="text;html=1;align=center;verticalAlign=middle;whiteSpace=wrap;rounded=0;fillColor=default;" vertex="1" parent="1">
          <mxGeometry x="175" y="1021" width="60" height="30" as="geometry" />
        </mxCell>
        <mxCell id="YsDEr2DyLJq_LBXa5pST-285" value="&lt;font style=&quot;font-size: 14px;&quot;&gt;&lt;font style=&quot;&quot; face=&quot;Courier New&quot;&gt;inner&lt;/font&gt;&lt;br&gt;&lt;/font&gt;&lt;div&gt;&lt;font style=&quot;font-size: 14px;&quot; face=&quot;Courier New&quot;&gt;join&lt;/font&gt;&lt;/div&gt;" style="text;html=1;align=center;verticalAlign=middle;whiteSpace=wrap;rounded=0;fillColor=default;" vertex="1" parent="1">
          <mxGeometry x="250" y="1021" width="45" height="30" as="geometry" />
        </mxCell>
        <mxCell id="YsDEr2DyLJq_LBXa5pST-286" value="" style="strokeWidth=2;html=1;shape=mxgraph.flowchart.annotation_2;align=left;labelPosition=right;pointerEvents=1;rotation=-90;" vertex="1" parent="1">
          <mxGeometry x="360" y="1030" width="40" height="75" as="geometry" />
        </mxCell>
        <mxCell id="YsDEr2DyLJq_LBXa5pST-287" value="" style="endArrow=none;html=1;rounded=0;exitX=1;exitY=0;exitDx=0;exitDy=0;exitPerimeter=0;strokeWidth=2;" edge="1" parent="1" source="YsDEr2DyLJq_LBXa5pST-286">
          <mxGeometry width="50" height="50" relative="1" as="geometry">
            <mxPoint x="343" y="1079" as="sourcePoint" />
            <mxPoint x="343" y="1000" as="targetPoint" />
          </mxGeometry>
        </mxCell>
        <mxCell id="YsDEr2DyLJq_LBXa5pST-288" value="" style="endArrow=none;html=1;rounded=0;exitX=1;exitY=0;exitDx=0;exitDy=0;exitPerimeter=0;strokeWidth=2;" edge="1" parent="1">
          <mxGeometry width="50" height="50" relative="1" as="geometry">
            <mxPoint x="418" y="1049" as="sourcePoint" />
            <mxPoint x="418" y="1001" as="targetPoint" />
          </mxGeometry>
        </mxCell>
        <mxCell id="YsDEr2DyLJq_LBXa5pST-289" value="&lt;font style=&quot;font-size: 14px;&quot; face=&quot;Courier New&quot;&gt;left&lt;/font&gt;&lt;div&gt;&lt;font style=&quot;font-size: 14px;&quot; face=&quot;Courier New&quot;&gt;join&lt;/font&gt;&lt;/div&gt;" style="text;html=1;align=center;verticalAlign=middle;whiteSpace=wrap;rounded=0;fillColor=default;" vertex="1" parent="1">
          <mxGeometry x="315" y="1020" width="60" height="30" as="geometry" />
        </mxCell>
        <mxCell id="YsDEr2DyLJq_LBXa5pST-290" value="" style="strokeWidth=2;html=1;shape=mxgraph.flowchart.annotation_2;align=left;labelPosition=right;pointerEvents=1;rotation=-90;" vertex="1" parent="1">
          <mxGeometry x="490" y="1031" width="40" height="75" as="geometry" />
        </mxCell>
        <mxCell id="YsDEr2DyLJq_LBXa5pST-291" value="" style="endArrow=none;html=1;rounded=0;exitX=1;exitY=0;exitDx=0;exitDy=0;exitPerimeter=0;strokeWidth=2;" edge="1" parent="1" source="YsDEr2DyLJq_LBXa5pST-290">
          <mxGeometry width="50" height="50" relative="1" as="geometry">
            <mxPoint x="473" y="1080" as="sourcePoint" />
            <mxPoint x="473" y="1001" as="targetPoint" />
          </mxGeometry>
        </mxCell>
        <mxCell id="YsDEr2DyLJq_LBXa5pST-292" value="" style="endArrow=none;html=1;rounded=0;exitX=1;exitY=0;exitDx=0;exitDy=0;exitPerimeter=0;strokeWidth=2;" edge="1" parent="1">
          <mxGeometry width="50" height="50" relative="1" as="geometry">
            <mxPoint x="548" y="1050" as="sourcePoint" />
            <mxPoint x="548" y="1002" as="targetPoint" />
          </mxGeometry>
        </mxCell>
        <mxCell id="YsDEr2DyLJq_LBXa5pST-293" value="&lt;font style=&quot;font-size: 14px;&quot; face=&quot;Courier New&quot;&gt;left&lt;/font&gt;&lt;div&gt;&lt;font style=&quot;font-size: 14px;&quot; face=&quot;Courier New&quot;&gt;join&lt;/font&gt;&lt;/div&gt;" style="text;html=1;align=center;verticalAlign=middle;whiteSpace=wrap;rounded=0;fillColor=default;" vertex="1" parent="1">
          <mxGeometry x="445" y="1021" width="60" height="30" as="geometry" />
        </mxCell>
        <mxCell id="YsDEr2DyLJq_LBXa5pST-294" value="&lt;font style=&quot;font-size: 13px;&quot;&gt;&lt;font face=&quot;Courier New&quot;&gt;inner&lt;/font&gt;&lt;br&gt;&lt;/font&gt;&lt;div&gt;&lt;font style=&quot;font-size: 13px;&quot; face=&quot;Courier New&quot;&gt;join&lt;/font&gt;&lt;/div&gt;" style="text;html=1;align=center;verticalAlign=middle;whiteSpace=wrap;rounded=0;fillColor=default;" vertex="1" parent="1">
          <mxGeometry x="520" y="1021" width="45" height="30" as="geometry" />
        </mxCell>
        <mxCell id="YsDEr2DyLJq_LBXa5pST-295" value="&lt;font style=&quot;font-size: 16px;&quot;&gt;ADF&lt;/font&gt;" style="text;html=1;align=center;verticalAlign=middle;whiteSpace=wrap;rounded=0;" vertex="1" parent="1">
          <mxGeometry x="720" y="1331" width="60" height="30" as="geometry" />
        </mxCell>
        <mxCell id="YsDEr2DyLJq_LBXa5pST-296" value="" style="rounded=0;whiteSpace=wrap;html=1;" vertex="1" parent="1">
          <mxGeometry x="708.5" y="1361" width="81.5" height="27" as="geometry" />
        </mxCell>
        <mxCell id="YsDEr2DyLJq_LBXa5pST-297" value="&lt;font style=&quot;font-size: 16px;&quot;&gt;Pipeline&lt;/font&gt;" style="text;html=1;align=center;verticalAlign=middle;whiteSpace=wrap;rounded=0;" vertex="1" parent="1">
          <mxGeometry x="720.5" y="1359.5" width="60" height="30" as="geometry" />
        </mxCell>
        <mxCell id="YsDEr2DyLJq_LBXa5pST-298" value="" style="shape=dataStorage;whiteSpace=wrap;html=1;fixedSize=1;" vertex="1" parent="1">
          <mxGeometry x="601.5" y="1247.5" width="78.5" height="45" as="geometry" />
        </mxCell>
        <mxCell id="YsDEr2DyLJq_LBXa5pST-299" value="&lt;font style=&quot;font-size: 17px;&quot;&gt;ACL&lt;/font&gt;" style="text;html=1;align=center;verticalAlign=middle;whiteSpace=wrap;rounded=0;" vertex="1" parent="1">
          <mxGeometry x="602" y="1255" width="60" height="30" as="geometry" />
        </mxCell>
        <mxCell id="YsDEr2DyLJq_LBXa5pST-300" value="&lt;font face=&quot;Times New Roman&quot; style=&quot;font-size: 18px;&quot;&gt;Data Flow Diagram&lt;/font&gt;&lt;div&gt;&lt;font face=&quot;Times New Roman&quot; style=&quot;font-size: 18px;&quot;&gt;for FWD Data360&lt;/font&gt;&lt;/div&gt;" style="text;html=1;align=center;verticalAlign=middle;whiteSpace=wrap;rounded=0;" vertex="1" parent="1">
          <mxGeometry x="880" y="80" width="220" height="30" as="geometry" />
        </mxCell>
        <mxCell id="YsDEr2DyLJq_LBXa5pST-301" value="" style="endArrow=classic;html=1;rounded=0;exitX=0.651;exitY=1.005;exitDx=0;exitDy=0;exitPerimeter=0;entryX=0.75;entryY=0;entryDx=0;entryDy=0;" edge="1" parent="1" source="YsDEr2DyLJq_LBXa5pST-182" target="YsDEr2DyLJq_LBXa5pST-261">
          <mxGeometry width="50" height="50" relative="1" as="geometry">
            <mxPoint x="190" y="730" as="sourcePoint" />
            <mxPoint x="190" y="769" as="targetPoint" />
          </mxGeometry>
        </mxCell>
        <mxCell id="YsDEr2DyLJq_LBXa5pST-302" value="Tables" style="text;html=1;align=center;verticalAlign=middle;whiteSpace=wrap;rounded=0;fillColor=default;" vertex="1" parent="1">
          <mxGeometry x="110" y="732.5" width="45" height="15" as="geometry" />
        </mxCell>
        <mxCell id="YsDEr2DyLJq_LBXa5pST-303" value="Offsets" style="text;html=1;align=center;verticalAlign=middle;whiteSpace=wrap;rounded=0;fillColor=default;" vertex="1" parent="1">
          <mxGeometry x="170" y="747.5" width="40" height="30" as="geometry" />
        </mxCell>
        <mxCell id="YsDEr2DyLJq_LBXa5pST-304" value="" style="rounded=1;whiteSpace=wrap;html=1;" vertex="1" parent="1">
          <mxGeometry x="389" y="760" width="50" height="30" as="geometry" />
        </mxCell>
        <mxCell id="YsDEr2DyLJq_LBXa5pST-305" value="" style="endArrow=classic;html=1;rounded=0;exitX=0.398;exitY=1.008;exitDx=0;exitDy=0;exitPerimeter=0;entryX=0.42;entryY=-0.01;entryDx=0;entryDy=0;entryPerimeter=0;" edge="1" parent="1" source="YsDEr2DyLJq_LBXa5pST-207" target="YsDEr2DyLJq_LBXa5pST-304">
          <mxGeometry width="50" height="50" relative="1" as="geometry">
            <mxPoint x="404" y="720" as="sourcePoint" />
            <mxPoint x="404" y="760" as="targetPoint" />
          </mxGeometry>
        </mxCell>
        <mxCell id="YsDEr2DyLJq_LBXa5pST-306" value="" style="rounded=1;whiteSpace=wrap;html=1;" vertex="1" parent="1">
          <mxGeometry x="414" y="810" width="70" height="30" as="geometry" />
        </mxCell>
        <mxCell id="YsDEr2DyLJq_LBXa5pST-307" value="&lt;font style=&quot;font-size: 13px;&quot;&gt;Checkpoint&lt;/font&gt;" style="text;html=1;align=center;verticalAlign=middle;whiteSpace=wrap;rounded=0;" vertex="1" parent="1">
          <mxGeometry x="419" y="810" width="60" height="30" as="geometry" />
        </mxCell>
        <mxCell id="YsDEr2DyLJq_LBXa5pST-308" value="&lt;font style=&quot;font-size: 13px;&quot;&gt;Folder&lt;/font&gt;" style="text;html=1;align=center;verticalAlign=middle;whiteSpace=wrap;rounded=0;" vertex="1" parent="1">
          <mxGeometry x="389" y="765" width="50" height="20" as="geometry" />
        </mxCell>
        <mxCell id="YsDEr2DyLJq_LBXa5pST-309" value="" style="endArrow=classic;html=1;rounded=0;exitX=0.651;exitY=1.005;exitDx=0;exitDy=0;exitPerimeter=0;entryX=0.75;entryY=0;entryDx=0;entryDy=0;" edge="1" parent="1" target="YsDEr2DyLJq_LBXa5pST-307">
          <mxGeometry width="50" height="50" relative="1" as="geometry">
            <mxPoint x="464" y="720" as="sourcePoint" />
            <mxPoint x="464" y="769" as="targetPoint" />
          </mxGeometry>
        </mxCell>
        <mxCell id="YsDEr2DyLJq_LBXa5pST-310" value="Tables" style="text;html=1;align=center;verticalAlign=middle;whiteSpace=wrap;rounded=0;fillColor=default;" vertex="1" parent="1">
          <mxGeometry x="384" y="732.5" width="45" height="15" as="geometry" />
        </mxCell>
        <mxCell id="YsDEr2DyLJq_LBXa5pST-311" value="Offsets" style="text;html=1;align=center;verticalAlign=middle;whiteSpace=wrap;rounded=0;fillColor=default;" vertex="1" parent="1">
          <mxGeometry x="444" y="747.5" width="40" height="30" as="geometry" />
        </mxCell>
        <mxCell id="YsDEr2DyLJq_LBXa5pST-312" value="" style="rounded=0;whiteSpace=wrap;html=1;fillColor=none;dashed=1;dashPattern=1 4;" vertex="1" parent="1">
          <mxGeometry x="50" y="1010" width="640" height="150" as="geometry" />
        </mxCell>
        <mxCell id="YsDEr2DyLJq_LBXa5pST-313" value="" style="rounded=1;whiteSpace=wrap;html=1;fillColor=none;" vertex="1" parent="1">
          <mxGeometry x="602.5" y="1030" width="77.5" height="110" as="geometry" />
        </mxCell>
        <mxCell id="YsDEr2DyLJq_LBXa5pST-314" value="&lt;font style=&quot;font-size: 14px;&quot;&gt;Notebooks&lt;/font&gt;" style="text;html=1;align=center;verticalAlign=middle;whiteSpace=wrap;rounded=0;" vertex="1" parent="1">
          <mxGeometry x="612.5" y="1070" width="60" height="30" as="geometry" />
        </mxCell>
        <mxCell id="YsDEr2DyLJq_LBXa5pST-315" value="" style="rounded=1;whiteSpace=wrap;html=1;" vertex="1" parent="1">
          <mxGeometry x="655" y="760" width="50" height="30" as="geometry" />
        </mxCell>
        <mxCell id="YsDEr2DyLJq_LBXa5pST-316" value="" style="endArrow=classic;html=1;rounded=0;exitX=0.398;exitY=1.008;exitDx=0;exitDy=0;exitPerimeter=0;entryX=0.42;entryY=-0.01;entryDx=0;entryDy=0;entryPerimeter=0;" edge="1" parent="1" target="YsDEr2DyLJq_LBXa5pST-315">
          <mxGeometry width="50" height="50" relative="1" as="geometry">
            <mxPoint x="676" y="721" as="sourcePoint" />
            <mxPoint x="670" y="760" as="targetPoint" />
          </mxGeometry>
        </mxCell>
        <mxCell id="YsDEr2DyLJq_LBXa5pST-317" value="" style="rounded=1;whiteSpace=wrap;html=1;" vertex="1" parent="1">
          <mxGeometry x="680" y="810" width="70" height="30" as="geometry" />
        </mxCell>
        <mxCell id="YsDEr2DyLJq_LBXa5pST-318" value="&lt;font style=&quot;font-size: 13px;&quot;&gt;Checkpoint&lt;/font&gt;" style="text;html=1;align=center;verticalAlign=middle;whiteSpace=wrap;rounded=0;" vertex="1" parent="1">
          <mxGeometry x="685" y="810" width="60" height="30" as="geometry" />
        </mxCell>
        <mxCell id="YsDEr2DyLJq_LBXa5pST-319" value="&lt;font style=&quot;font-size: 13px;&quot;&gt;Folder&lt;/font&gt;" style="text;html=1;align=center;verticalAlign=middle;whiteSpace=wrap;rounded=0;" vertex="1" parent="1">
          <mxGeometry x="655" y="765" width="50" height="20" as="geometry" />
        </mxCell>
        <mxCell id="YsDEr2DyLJq_LBXa5pST-320" value="" style="endArrow=classic;html=1;rounded=0;exitX=0.651;exitY=1.005;exitDx=0;exitDy=0;exitPerimeter=0;entryX=0.75;entryY=0;entryDx=0;entryDy=0;" edge="1" parent="1" target="YsDEr2DyLJq_LBXa5pST-318">
          <mxGeometry width="50" height="50" relative="1" as="geometry">
            <mxPoint x="730" y="720" as="sourcePoint" />
            <mxPoint x="730" y="769" as="targetPoint" />
          </mxGeometry>
        </mxCell>
        <mxCell id="YsDEr2DyLJq_LBXa5pST-321" value="Tables" style="text;html=1;align=center;verticalAlign=middle;whiteSpace=wrap;rounded=0;fillColor=default;" vertex="1" parent="1">
          <mxGeometry x="650" y="732.5" width="45" height="15" as="geometry" />
        </mxCell>
        <mxCell id="YsDEr2DyLJq_LBXa5pST-322" value="Offsets" style="text;html=1;align=center;verticalAlign=middle;whiteSpace=wrap;rounded=0;fillColor=default;" vertex="1" parent="1">
          <mxGeometry x="710" y="747.5" width="40" height="30" as="geometry" />
        </mxCell>
      </root>
    </mxGraphModel>
  </diagram>
</mxfile>
